<svg xmlns="http://www.w3.org/2000/svg" fill="none" viewBox="0 0 395 174" xmlns:xlink="http://www.w3.org/1999/xlink"><defs><path id="a" stroke="#6598CB" d="M345.3 99.4c-2.4-.3-8.1-1-20.8-1s-18.5.7-20.9 1a1 1 0 0 0-.4.8l.2.2c4 2.6 16.3 11 16.3 18.1v30.8h9.5v-30.8c0-7.1 12.4-15.5 16.3-18a.6.6 0 0 0 0-1z"/></defs><path stroke="#6598CB" stroke-linecap="round" stroke-linejoin="round" stroke-width="1.2" d="M2.4 149.3h389.2"/><path stroke="#6598CB" stroke-linecap="round" stroke-linejoin="round" stroke-width=".9" d="M355.2 112.3c-1.7-.3-6-.7-15.4-.7a110 110 0 0 0-15.7.8.4.4 0 0 0 0 .6c3 2 12.1 8.2 12.1 13.5v22.8h7.1v-22.8c0-5.3 9.1-11.6 12-13.5a.4.4 0 0 0 0-.7"/><path stroke="#6598CB" stroke-linecap="round" stroke-linejoin="round" stroke-width=".9" d="m355.2 112.3-2.3-.3c-3.8 2.9-10.3 8.5-10.3 13.3v24h.7v-22.8c0-5.3 9.1-11.6 12-13.5a.4.4 0 0 0 .1-.6zm-30.9 0 2.3-.3c3.8 2.9 10.3 8.5 10.3 13.3v24h-.7v-22.8c0-5.3-9.1-11.6-12-13.5l-.2-.1a.4.4 0 0 1 .3-.6"/><path stroke="#6598CB" stroke-linecap="round" stroke-linejoin="round" stroke-width=".9" d="M332.8 111.7a39 39 0 0 1 5.3 13.7v23.9h1v-37.7zm13.9 0-6.3-.1v37.7h1v-23.9a39 39 0 0 1 5.3-13.7"/><path stroke="#6598CB" stroke-width=".9" d="M321 108.6c-2-.3-6.7-.8-17-.8s-15 .5-17 .8l-.3.1v.3l.1.5c3.2 2 13.3 8.9 13.3 14.7v25.1h7.8v-25c0-6 10-12.8 13.2-14.8a.5.5 0 0 0-.1-.9z"/><path stroke="#6598CB" stroke-linecap="round" stroke-linejoin="round" stroke-width=".9" d="M321 108.6c-2-.3-6.7-.8-17-.8s-15 .5-17 .8l-.3.1v.3l.1.5c3.2 2 13.3 8.9 13.3 14.7v25.1h7.8v-25c0-6 10-12.8 13.2-14.8a.5.5 0 0 0-.1-.9"/><path stroke="#6598CB" stroke-linecap="round" stroke-linejoin="round" stroke-width=".9" d="m321 108.6-2.6-.3c-4.1 3.2-11.3 9.3-11.3 14.7v26.3h.8v-25c0-6 10-12.8 13.2-14.8a.5.5 0 0 0-.1-.9m-34 0 2.5-.3c4.2 3.2 11.4 9.3 11.4 14.7v26.3h-.8v-25c0-6-10-12.8-13.3-14.8l-.2-.5z"/><path stroke="#6598CB" stroke-linecap="round" stroke-linejoin="round" stroke-width=".9" d="M296.4 108c2 3.5 5.7 11 5.7 15v26.3h1.2v-41.5zm15.2 0-7-.2v41.5h1.2v-26.2c0-4 3.8-11.6 5.8-15.2"/><use stroke-width=".9" href="#a"/><use stroke-linecap="round" stroke-linejoin="round" stroke-width=".9" href="#a"/><path stroke="#6598CB" stroke-linecap="round" stroke-linejoin="round" stroke-width=".9" d="m345.3 99.4-3.1-.3c-5.2 3.8-14 11.4-14 18v32.2h1v-30.8c0-7.1 12.4-15.5 16.3-18a.6.6 0 0 0-.2-1m-41.7-.1 3.2-.3c5 3.8 13.8 11.4 13.8 18v32.2h-1v-30.8c0-7.1-12.2-15.5-16.2-18a.6.6 0 0 1 .2-1"/><path stroke="#6598CB" stroke-linecap="round" stroke-linejoin="round" stroke-width=".9" d="M315.1 98.6c2.5 4.4 7 13.6 7 18.5v32.2h1.5V98.5zm18.7 0-8.5-.1v50.8h1.4v-32.2c0-5 4.7-14 7-18.5m-54.5 50.7c0-47.9-15.6-99.7-15.6-99.7h-3.9s7 18.8-6.8 26.4c0 0 7.3 62.6 12 73.3z"/><path stroke="#6598CB" stroke-linecap="round" stroke-linejoin="round" stroke-width=".9" d="M263.6 49.6s15.4 22.3 15 28.5-3 27-2.8 28.2m-11 43H257v-42m3.5-55.3h3.8m-3.3 3h4.2m-3.8 2.8h4.5m-4.4 2.9h5.1m-5.3 2.8h6m-6.3 2.9h7m-6.2 2.9h7m-6.4 2.8h7M263 75h7m-6.3 2.9h7m-6.4 2.9h7m-6.4 2.8h7m-6.5 2.9h7m-6.4 2.9h7m-6.5 2.8h7m-6.5 2.9h7m-6.5 2.9h7m-6.5 2.9h7m-6.5 2.8h7m-6.5 2.9h6.8m-6.5 2.9h7m-6.6 2.9h7m-6.7 2.8h7m-6.6 2.8h7m-6.7 3h7m-6.7 2.8h7m-6.8 2.9h7m-6.8 2.9h7m-6.7 2.9h6.9m-6.8 2.8h7m-6.8 2.9h7m-7 2.8h7m-6.8 3h7m-7 2.8h7"/><path stroke="#6598CB" stroke-linecap="round" stroke-linejoin="round" stroke-width="1.2" d="M219.3 149.3h-39.4l9-69.6h21.3z"/><path stroke="#6598CB" stroke-linecap="round" stroke-linejoin="round" stroke-width="1.2" d="m208 142.8-5.7-43.3h-5.4l-6.5 49.8"/><path stroke="#6598CB" stroke-linecap="round" stroke-linejoin="round" stroke-width="1.2" d="M205.2 138H192l.4-3.4h13z"/><path stroke="#6598CB" stroke-linecap="round" stroke-linejoin="round" stroke-width="1.2" d="M205.2 134.6h-6.6v3.5h6.6zm3.7 14.7h-18.5l.9-6.5h19.2zM194.2 120l2.3 14.6m0-26.6 4.1 26.6m1.4-35.1-5.5 35.1m3.5 3.4-.8 4.8m-1.4 0-.7-4.7m-1.4-.1-.7 4.8m-1.4 0-.8-4.7m11.4-.1-.8 4.8m-1.4 0-.7-4.7m4.7 4.7-.8-4.7m-5.9-38.6 5.4 35.1m-.7-21.9-3.4 22m5.3-7.6-1.2 7.5m-6.9-35.1-1.3 8.6m-7.8-26.4h3m-3.3 2h3m-3.2 2h3m-3.2 2h2.9m-3.2 2h3m-3.3 2h3m-3.3 2h3m-3.2 2h3m-3.3 2h3m-3.2 2h3m-3.4 2h3m-3.2 1.9h3m-3.2 2h3m-3.3 2h3m-3.3 2h3m-3.2 2h3m-3.3 2h3m-3.2 2h3m-3.3 2h3m-3.2 2h3m-3.3 2h3m-3.3 2h3m-3.2 2h3m-3.3 1.9h3m-3.2 2h3m-3.3 2h3m-3.2 2h3m-3.3 2h3m-3.3 2h3m-3.2 2h3m-3.3 2h3m-3.3 2h3m-3.2 2h3m-3.3 2h3m27.4-65.8h-3m3.3 2h-3m3.2 2h-3m3.3 2h-3m3.2 2h-3m3.3 2h-3m3.2 2h-3m3.3 2h-3m3.3 2h-3m3.2 2h-3m3.2 2h-2.9m3.2 1.9h-3m3.3 2h-3m3.3 2h-3m3.2 2h-3m3.3 2h-3m3.2 2h-3m3.3 2h-3m3.3 2h-3m3.2 2h-3m3.3 2h-3m3.3 2h-3m3.2 2h-3m3.3 1.9h-3m3.2 2h-3m3.3 2h-3m3.2 2h-3m3.3 2h-3m3.3 2h-3m3.2 2h-3m3.3 2h-3m3.2 2h-3m3.3 2h-3m3.2 2h-3"/><path stroke="#6598CB" stroke-linecap="round" stroke-linejoin="round" stroke-width=".9" d="M148.1 104.2c0-14.7 9.7-54.8 9.7-54.8S148 44.7 148 48v101.4h20.1V38l-4.4-5v6.5l-11 8m-.8 29v72.8"/><path stroke="#6598CB" stroke-linecap="round" stroke-linejoin="round" stroke-width=".9" d="M159.4 149.3s8.8-45.1 8.8-60.9m-4.4-49v85.2M160 48v1.5m1.7.9V52m-2.9 2.3v1.4m1.6 0v1.4m1.9 2.9v1.5m-4.7 0v1.4m2.8.6V65m-3.8 3v1.4m2.8.6v1.5m2.3 3v1.4m-5.7-2.4V75m2.2 1.7V78m-3.7 2.2v1.5m2.5 1.9V85m4.2-4.8v1.5m-1.4 4.6v1.4m-4.9 1.4v1.5M157 93v1.5m4.7-3.7v1.5m-1.7 4.3V98m-5.5 2.4v1.4m3.4 2.8v1.4m3.8-4.2v1.4m-1.3 3.3v1.4m-5.9.9v1.4m2.1 2.2v1.4m4.6-2.8v1.4m-2 3.4v1.4m3 1.7v1.4m-8.6-3.5v1.4m2.7.7v1.4m-1.5 2.9v1.4m4.1-2.8v1.4m1.9 1.9v1.5m-2.9.4v1.4m-4.3.4v1.4m2.3 2.3v1.5m3.9-4.2v1.4m-1.1 4.6v1.4m-5.1-.2v1.4m3 1.1v1.5m-2.1 1.4v1.5m3.1 1.6v1.5m-3.7-.5v1.4m-22.1-55.7a4.3 4.3 0 0 1-7.3 3 4.3 4.3 0 0 1 4.7-7 4 4 0 0 1 2.6 4"/><path stroke="#6598CB" stroke-linecap="round" stroke-linejoin="round" stroke-width=".9" d="M128.6 96.4a4 4 0 0 1-3.3-4.2 4 4 0 0 1 3.3-4.1m-3.1.3h2m-3.1.9h2.1m-2.7.8h2m-2.4.9h2m-2.1.9h2m-2 .8h2m-1.8.9h2m-1.7.8h2m-1.3.9h2m-.9.8h2.2m7.9 17.4a8.1 8.1 0 0 1-11.5 8.6 8 8 0 0 1-4.5-8.7m.3-1.4a8 8 0 0 1 12.4-3.9q2 1.6 3 4"/><path stroke="#6598CB" stroke-linecap="round" stroke-linejoin="round" stroke-width=".9" d="M124.1 111.4a8 8 0 0 1 5.8-4.6m-.3 15.9a8 8 0 0 1-6-10m.3-5.1h3.9m-6 1.6h4m-5.2 1.6h3.9m-4.9 3.2h3.9m-3.9 1.7h3.9m-3.5 1.6h3.8m-3.1 1.6h3.8m-2.6 1.6h3.9m-1.8 1.6h4m-14.7 27.2 1.6-51.1 1.6 51.1z"/><path stroke="#6598CB" stroke-linecap="round" stroke-linejoin="round" stroke-width=".9" d="M131.6 121.9a3 3 0 0 0-1.7 3l1 24.4h-6.8l1-24.6a3 3 0 0 0-1.6-3m13-7.7v-1.2c0-.8-4-1.5-9-1.5s-8.9.7-8.9 1.5v1.3"/><path stroke="#6598CB" stroke-linecap="round" stroke-linejoin="round" stroke-width=".9" d="M135.7 114.7q.8-.3.8-.6c0-.8-4-1.5-9-1.5s-8.9.7-8.9 1.5q0 .3 1 .6m5.3-19.1a3 3 0 0 1 1.3 2.6l-.3 6.8a2 2 0 0 1-1.5 2.3m5.8-11.7a3 3 0 0 0-1.3 2.6l.3 6.8q0 .8.4 1.3s.6.7 1 .9m-5.1-18.8q1-.5 1.1-1.5l1-23.2.8 23.2q0 .9 1.1 1.5M127.1 74h.8m-13.5 40.7h1m-9.9-19.6h1m2.7 27.7a3 3 0 0 0-1.3 2.9l1 23.6h-5.8l1-23.6q0-.9-.3-1.6s-.6-1-1-1.3m1.1-11.1a2 2 0 0 0 .9-1.5l1.2-26.9 1.2 27a2 2 0 0 0 1 1.4"/><path stroke="#6598CB" stroke-linecap="round" stroke-linejoin="round" stroke-width=".9" d="M112.2 117.5a6.2 6.2 0 0 1-7.4 6.1 6.2 6.2 0 0 1-4.5-8.4 6.2 6.2 0 0 1 10-2 6 6 0 0 1 1.9 4.3"/><path stroke="#6598CB" stroke-linecap="round" stroke-linejoin="round" stroke-width=".9" d="M107.5 123.6a6.2 6.2 0 0 1-3.3-10q1.4-1.6 3.5-2.1m-4.6.5h3m-4.6 1.3h3m-3.9 1.2h3m-3.6 1.3h3m-3.2 1.2h3m-3 1.2h3m-2.7 1.2h3m-2.4 1.3h3m-2.1 1.3h3m-1.4 1.1h3.1M240 98.8c-5-1.5-10.6 0-10.8 0v-8.4s-.3-1.7 5.4-1.7 5.4 1.7 5.4 1.7zm-10.8 0c0 2.5 3 2.3 3 4.8v3.3m7.8-8.1c0 2.5-3 2.3-3 4.8v3.3"/><path stroke="#6598CB" stroke-linecap="round" stroke-linejoin="round" stroke-width=".9" d="M232 102.4q2.6-1 5.3 0m2.7-7.8q1.4-.3 1.4-.6c0-.5-3-.9-6.8-.9s-6.7.4-6.7 1q0 .2 1.3.5m8.2-8.3q.7-.2.7-.5c0-.4-1.5-.8-3.5-.8s-3.5.4-3.5.8q0 .3.7.5m8.2 10q1.4-.2 1.4-.5c0-.5-3-1-6.8-1s-6.7.5-6.7 1q0 .3 1.3.5M240 98q1.4-.2 1.4-.5c0-.5-3-.9-6.8-.9s-6.7.4-6.7 1q0 .2 1.3.4m8.3 51.3h-5.7l.4-34.8h4.9zm-.5-34.8c0-1 2.5-2.1 4-2.8 1.2-.7 1-1.5 1-1.5 0-.5-3.3-1-7.4-1s-7.3.5-7.3 1c0 0-.3.8 1 1.5 1.5.7 4 1.8 4 2.8"/><path stroke="#6598CB" stroke-linecap="round" stroke-linejoin="round" stroke-width=".9" d="M242 110.2c0-1.8-5-1.9-5-3.3m-9.7 3.3c0-1.8 5-1.9 5-3.3m5.1-21.5v3.5m-5.6-3.5v3.5m1.2-3.8 1.6-52 1.7 52"/><path stroke="#6598CB" stroke-linecap="round" stroke-linejoin="round" stroke-width=".9" d="M233 82.9q-1.5-.3-1.6-.6c0-.3 1.5-.6 3.2-.6s3.2.3 3.2.6q0 .3-1.6.6m-3-3.3q-1.5-.2-1.5-.5c0-.3 1.3-.6 3-.6s2.9.3 2.9.6q0 .3-1.5.5m142.6 69.7h-8V54l8 8z"/><path stroke="#6598CB" stroke-linecap="round" stroke-linejoin="round" stroke-width=".9" d="m378.7 62-8-8v-7.5l8 8z"/><path stroke="#6598CB" stroke-linecap="round" stroke-linejoin="round" stroke-width=".9" d="m378.7 146.1-8-8.4 8-8.4-8-8.4 8-8.4-8-8.4 8-8.5-8-8.4 8-8.4-8-8.4 8-8.4m-8 2.3h-9v85h9zm-7.7 6.9v-9m1.5 9v-9m1.7 9v-9m1.6 9v-9m1.6 9v-9"/><path stroke="#6598CB" stroke-linecap="round" stroke-linejoin="round" stroke-width=".9" d="M370.7 79.6h-6.8v69.7h6.8z"/><path stroke="#6598CB" stroke-linecap="round" stroke-linejoin="round" stroke-width=".9" d="M366.6 81.7h-1.3V83h1.3zm2.7 0H368V83h1.3zm-2.7 2.5h-1.3v1.3h1.3zm2.7 0H368v1.3h1.3zm-2.7 2.5h-1.3V88h1.3zm2.7 0H368V88h1.3zm-2.7 2.5h-1.3v1.3h1.3zm2.7 0H368v1.3h1.3zm-2.7 2.5h-1.3V93h1.3zm2.7 0H368V93h1.3zm-2.7 2.5h-1.3v1.3h1.3zm2.7 0H368v1.3h1.3zm-2.7 2.5h-1.3V98h1.3zm2.7 0H368V98h1.3zm-2.7 2.5h-1.3v1.3h1.3zm2.7 0H368v1.3h1.3zm-2.7 2.5h-1.3v1.3h1.3zm2.7 0H368v1.3h1.3zm-2.7 2.5h-1.3v1.3h1.3zm2.7 0H368v1.3h1.3zm-2.7 2.5h-1.3v1.3h1.3zm2.7 0H368v1.3h1.3zm-2.7 2.5h-1.3v1.3h1.3zm2.7 0H368v1.3h1.3zm-2.7 2.5h-1.3v1.3h1.3zm2.7 0H368v1.3h1.3zm-2.7 2.5h-1.3v1.3h1.3zm2.7 0H368v1.3h1.3zm-2.7 2.5h-1.3v1.3h1.3zm2.7 0H368v1.3h1.3zm-2.7 2.5h-1.3v1.3h1.3zm2.7 0H368v1.3h1.3zm-2.7 2.5h-1.3v1.3h1.3zm2.7 0H368v1.3h1.3zm-2.7 2.5h-1.3v1.3h1.3zm2.7 0H368v1.3h1.3zm-2.7 2.5h-1.3v1.3h1.3zm2.7 0H368v1.3h1.3zm-2.7 2.5h-1.3v1.3h1.3zm2.7 0H368v1.3h1.3zm-2.7 2.5h-1.3v1.3h1.3zm2.7 0H368v1.3h1.3zm-2.7 2.5h-1.3v1.3h1.3zm2.7 0H368v1.3h1.3zm-2.7 2.5h-1.3v1.3h1.3zm2.7 0H368v1.3h1.3zm-2.7 2.5h-1.3v1.3h1.3zm2.7 0H368v1.3h1.3zm-2.7 2.5h-1.3v1.3h1.3zm2.7 0H368v1.3h1.3zm-2.7 2.5h-1.3v1.3h1.3zm2.7 0H368v1.3h1.3zm-2.7 2.5h-1.3v1.3h1.3zm2.7 0H368v1.3h1.3zm1.4-91.4h-5.4v9h5.4zm0-1.5h-4v1.5h4zm1.5-5.8-1.5-1.5V34.4h1.5zM34 149.3q4-29 4.5-58.4c.4-30.4-11.8-58.6-17.1-53.6-9.2 8.6-5.4 105.4-5.4 112z"/><path stroke="#6598CB" stroke-linecap="round" stroke-linejoin="round" stroke-width=".9" d="M22.7 36.8s18.5 15 7.4 112.5"/><path stroke="#6598CB" stroke-linecap="round" stroke-linejoin="round" stroke-width=".9" d="M22.7 36.8s14 15 5.3 112.5"/><path stroke="#6598CB" stroke-linecap="round" stroke-linejoin="round" stroke-width=".9" d="M22.7 36.8S33 48.7 26 149.3"/><path stroke="#6598CB" stroke-linecap="round" stroke-linejoin="round" stroke-width=".9" d="M22.7 36.8s5 14 1.3 112.5M22.7 36.8s-8.7 7-4.7 112.5"/><path stroke="#6598CB" stroke-linecap="round" stroke-linejoin="round" stroke-width=".9" d="M22.7 36.8s-4.4 8.5-2.7 112.5m2.7-112.5L22 149.3m5.5-103.9h2.4m-.9 4.5h2.7M30 54.4h3.2M31 58.8h3.5m-2.8 4.5h4m-3.4 4.5h4.2m-3.8 4.4h4.5M33 76.7h4.8m-4.5 4.5h4.9m-4.7 4.4h5M33.6 90h5m-5 4.6h4.8M33.6 99h4.7m-4.8 4.5H38m-4.7 4.5H38m-4.9 4.4h4.6m-4.8 4.5h4.5m-4.8 4.5H37m-4.7 4.4h4.4m-4.7 4.5h4.2m-4.6 4.5h4.3m-4.8 4.4h4.2m-4.6 4.5h4.1m-4.6 4.5h4m27.1-71.8h-9.7v72.9h9.7z"/><path stroke="#6598CB" stroke-linecap="round" stroke-linejoin="round" stroke-width=".9" d="M59.3 79h-5.7v1.7h5.7zm0 3.8h-5.7v7h5.7zm-5.7 7h5.7m-5.7 2.7h5.7m-5.7 2.7h5.7M53.6 98h5.7m-5.7 2.6h5.7m-5.7 2.7h5.7m-5.7 2.7h5.7m-5.7 2.7h5.7m-5.7 2.7h5.7m-5.7 2.7h5.7m-5.7 2.8h5.7m-5.7 2.7h5.7m-5.7 2.7h5.7m-5.7 2.7h5.7m-5.7 2.7h5.7m-5.7 2.7h5.7m-5.7 2.6h5.7m-5.7 2.8h5.7m-5.7 2.7h5.7m-5.7 2.7h5.7m-5.7 2.7h5.7m-5.7 2.7h5.7m26-67.6h-5.7v1.7h5.7zm0 3.8h-5.7v7h5.7zm-5.7 7h5.7m-5.7 2.7h5.7m-5.7 2.7h5.7M79.6 98h5.7m-5.7 2.6h5.7m-5.7 2.7h5.7m-5.7 2.7h5.7m-5.7 2.7h5.7m-5.7 2.7h5.7m-5.7 2.7h5.7m-5.7 2.8h5.7m-5.7 2.7h5.7m-5.7 2.7h5.7m-5.7 2.7h5.7m-5.7 2.7h5.7m-5.7 2.7h5.7m-5.7 2.6h5.7m-5.7 2.8h5.7m-5.7 2.7h5.7m-5.7 2.7h5.7m-5.7 2.7h5.7m-5.7 2.7h5.7"/><path stroke="#6598CB" stroke-linecap="round" stroke-linejoin="round" stroke-width=".9" d="M87.3 76.4h-9.7v72.9h9.7zM77.6 129H61.3v20.3h16.3zm0-17.6H61.3V125h16.3zm0-16.3H61.3v16.3h16.3zm0-18.7H61.3V95h16.3zm-11 0v6m1.9-6v6m1.9-6v6m2-6v6m-3.9-17v11m1.9-11v11"/><path stroke="#6598CB" stroke-linecap="round" stroke-linejoin="round" stroke-width=".9" d="M72.4 65.4h-5.8v11h5.8z"/><path stroke="#6598CB" stroke-linecap="round" stroke-linejoin="round" stroke-width=".9" d="M77.6 67.8h-5.2v8.6h5.2zm-11 0h-5.3v8.6h5.3z"/><path stroke="#6598CB" stroke-linecap="round" stroke-linejoin="round" stroke-width="1.2" d="M30.5 156h101.7m85.8 0h60.4m-129.9 9.3h93.7M69 173h49.2m149.8 0h95.4"/><path stroke="#6598CB" stroke-linecap="round" stroke-linejoin="round" stroke-width=".9" d="M10.8 25.5a1.4 1.4 0 0 0-1.7-1.3 1.4 1.4 0 0 0-1 1.9 1.4 1.4 0 0 0 1.3.8h4M48.8 4a1.4 1.4 0 0 0-1.6-1.4 1.4 1.4 0 0 0-1 1.9q0 .4.5.6l.7.3h4m67.1 29a1.4 1.4 0 1 0-1.4 1.4h4m40.8-22a1.4 1.4 0 0 0-1.7-1.4 1.4 1.4 0 0 0-1 2q.1.3.5.5l.8.3h4m57.2 41.1a1.4 1.4 0 0 0-1.6-1.4 1.4 1.4 0 0 0-1 2 1.4 1.4 0 0 0 1.3.8h4m32.1-43.3a1.4 1.4 0 0 0-.8-1.3 1.4 1.4 0 0 0-2 1 1.4 1.4 0 0 0 1.4 1.7h4m46.1 23.6a1.4 1.4 0 0 0-.8-1.3 1.4 1.4 0 0 0-2 1 1.4 1.4 0 0 0 1.5 1.7h4m28.6 31.9a1.4 1.4 0 0 0-1.7-1.4 1.4 1.4 0 0 0-1 2l.5.6.8.2h4M346.2 6a1.4 1.4 0 1 0-1.3 1.4h4M388.5 30a1.4 1.4 0 0 0-.9-1.2 1.4 1.4 0 0 0-1.9 1 1.4 1.4 0 0 0 1.4 1.7h4"/><path stroke="#6598CB" stroke-linecap="round" stroke-linejoin="round" stroke-width=".8" d="M8.8 68.7a1 1 0 0 1-1 .8 1 1 0 0 1-.5-1.1.8.8 0 0 1 1.5.3"/><path stroke="#6598CB" stroke-linecap="round" stroke-linejoin="round" stroke-width=".8" d="M8.8 68.7a1 1 0 0 1-1 .8 1 1 0 0 1-.5-1.1.8.8 0 0 1 1.5.3M7.2 1.8a1 1 0 0 1-1 .8 1 1 0 0 1-.5-1.1.8.8 0 0 1 1.3-.3z"/><path stroke="#6598CB" stroke-linecap="round" stroke-linejoin="round" stroke-width=".8" d="M7.2 1.8a1 1 0 0 1-1 .8 1 1 0 0 1-.5-1.1.8.8 0 0 1 1.3-.3zm68.3 9.8a1 1 0 0 1-1 .8 1 1 0 0 1-.5-1.1.8.8 0 0 1 1.5.3"/><path stroke="#6598CB" stroke-linecap="round" stroke-linejoin="round" stroke-width=".8" d="M75.5 11.6a1 1 0 0 1-1 .8 1 1 0 0 1-.5-1.1.8.8 0 0 1 1.5.3m21.9 44.8a1 1 0 0 1-.9.8 1 1 0 0 1-.6-1 .8.8 0 0 1 1.3-.3q.3.2.2.5"/><path stroke="#6598CB" stroke-linecap="round" stroke-linejoin="round" stroke-width=".8" d="M97.4 56.4a1 1 0 0 1-.9.8 1 1 0 0 1-.6-1 .8.8 0 0 1 1.3-.3q.3.2.2.5m98.7-24.1a.8.8 0 1 1-1.6 0 .8.8 0 0 1 1.6 0"/><path stroke="#6598CB" stroke-linecap="round" stroke-linejoin="round" stroke-width=".8" d="M196.1 32.3a.8.8 0 1 1-1.6 0 .8.8 0 0 1 1.6 0m69.3 1.7-.5.7a1 1 0 0 1-1.1-.6l.3-.8a.8.8 0 0 1 1.2.6"/><path stroke="#6598CB" stroke-linecap="round" stroke-linejoin="round" stroke-width=".8" d="m265.4 34-.5.7a1 1 0 0 1-1.1-.6l.3-.8a.8.8 0 0 1 1.2.6m-84.9 44.2-.5.7a1 1 0 0 1-1-.5.8.8 0 0 1 1.3-.7z"/><path stroke="#6598CB" stroke-linecap="round" stroke-linejoin="round" stroke-width=".8" d="m180.4 78.1-.5.7a1 1 0 0 1-1-.5.8.8 0 0 1 1.3-.7zm68.9 52.4-.5.7a.8.8 0 0 1-1-1q0-.3.3-.4a.8.8 0 0 1 1.2.7"/><path stroke="#6598CB" stroke-linecap="round" stroke-linejoin="round" stroke-width=".8" d="m249.3 130.5-.5.7a.8.8 0 0 1-1-1q0-.3.3-.4a.8.8 0 0 1 1.2.7M299 79a1 1 0 0 1-.5.8 1 1 0 0 1-1-.6 1 1 0 0 1 .7-1 1 1 0 0 1 .8.5z"/><path stroke="#6598CB" stroke-linecap="round" stroke-linejoin="round" stroke-width=".8" d="M299 79a1 1 0 0 1-.5.8 1 1 0 0 1-1-.6 1 1 0 0 1 .7-1 1 1 0 0 1 .8.5zm22.2-70a.8.8 0 1 0 0-1.6.8.8 0 0 0 0 1.6"/><path stroke="#6598CB" stroke-linecap="round" stroke-linejoin="round" stroke-width=".8" d="M321.2 9a.8.8 0 1 0 0-1.6.8.8 0 0 0 0 1.6m52.1-4.8a.8.8 0 1 0 0-1.6.8.8 0 0 0 0 1.6"/><path stroke="#6598CB" stroke-linecap="round" stroke-linejoin="round" stroke-width=".8" d="M373.3 4.2a.8.8 0 1 0 0-1.6.8.8 0 0 0 0 1.6m21 96.7-.5.7a1 1 0 0 1-.9-.2.8.8 0 0 1 1.2-1.1z"/><path stroke="#6598CB" stroke-linecap="round" stroke-linejoin="round" stroke-width=".8" d="m394.3 100.9-.5.7a1 1 0 0 1-.9-.2.8.8 0 0 1 1.2-1.1z"/><path fill="#3D5184" stroke="#6598CB" d="m61.7 37.4-.5.6.5.6.5-.6zM1.5 112.6l-.5.6.5.5a.6.6 0 0 0 0-1.1zM109.7 5.5a.6.6 0 0 0-.3 1l.3.1.6-.6zm87.2-2.1a.6.6 0 0 0-.4 1l.3.1a.6.6 0 0 0 .4-1zM233.4 30a.6.6 0 0 0-.4 1l.4.2a.6.6 0 0 0 .3-1zm40.2-28.4a.6.6 0 0 0-.4 1l.4.2a.6.6 0 0 0 0-1.2zm17 128.7-.5.6.5.6a.6.6 0 0 0 .4-1zm55.6-98a.6.6 0 0 0-.4 1l.4.1.5-.6zm45.4 29.9-.6.5.6.6.5-.6zm-5.4 66.1-.3.2a.6.6 0 0 0 .3 1l.6-.6zm-183.8 3.4-.6.5.6.6a.6.6 0 0 0 0-1.1zM95.3 91.3a.6.6 0 0 0-.4 1l.4.1.5-.5zm-51.7 42.1-.5.6.5.5a.6.6 0 0 0 0-1.1zM143 70.3l-.6.6.5.5a.6.6 0 0 0 .4-1zm81.4 12.1a.6.6 0 0 0-.4 1l.4.2.5-.6z"/></svg>